<svg width="729" height="100" viewBox="0 0 729 100" fill="none" xmlns="http://www.w3.org/2000/svg">
<path d="M661.455 100C682.717 75.0346 712.585 50.7628 728.987 42.0249C726.456 39.8058 722.508 36.6158 718.053 33.1484C696.892 42.7184 672.187 63.9389 650.115 87.9334C653.861 91.8169 657.81 95.8391 661.455 100Z" fill="#E31837"/>
<path d="M651.735 32.1775C648.596 30.0971 645.154 28.1553 642.521 26.491C634.523 31.9001 624.094 40.0832 610.932 52.982C613.767 55.0624 616.804 57.5589 620.044 60.0555C630.169 49.792 640.395 40.0832 651.735 32.1775Z" fill="#012169"/>
<path d="M670.668 20.2496C666.821 17.337 653.456 10.5409 644.243 7.62825C641.509 9.01521 637.661 11.0957 635.029 12.6213C638.37 13.8696 650.824 18.4466 661.455 25.7975C664.188 23.9944 668.036 21.7753 670.668 20.2496Z" fill="#E31837"/>
<path d="M625.411 18.4466C613.565 25.9362 601.111 36.1997 594.327 42.1637C596.757 43.6893 599.187 44.9376 602.528 47.1567C617.513 33.2871 629.258 24.8266 633.915 22.0527C630.574 20.3883 627.436 19.2788 625.411 18.4466Z" fill="#012169"/>
<path d="M679.578 15.9501C682.312 14.7018 685.451 13.5922 688.185 12.4827C680.287 7.90569 670.365 3.05132 661.455 0C660.037 0.554785 655.785 2.08044 652.849 3.32871C655.886 4.57698 665.91 7.76699 679.578 15.9501ZM629.663 68.0999C632.903 70.7351 636.345 74.3412 639.687 77.3925C661.86 53.8141 683.73 35.6449 707.725 25.3814C704.384 23.0236 701.448 20.9431 697.702 18.4466C683.325 23.4397 658.721 36.8932 629.663 68.0999Z" fill="#E31837"/>
<path d="M0 92.7877H16.1997C24.4008 92.7877 28.2483 86.9625 28.2483 78.7794C28.2483 72.122 25.7171 67.6837 20.4522 66.2967C25.1096 64.7711 27.2358 60.8876 27.2358 55.201C27.2358 47.9888 23.3884 42.1636 15.1872 42.1636H0.101248V92.7877H0ZM14.0735 71.2898C17.111 71.2898 19.2372 73.3703 19.2372 77.5311C19.2372 81.9694 17.2122 83.7725 14.0735 83.7725H8.8086V71.1511H14.0735V71.2898ZM13.061 51.0402C16.0985 51.0402 18.2247 52.8432 18.2247 57.0041C18.2247 61.165 16.1997 62.968 13.061 62.968H8.8086V51.0402H13.061ZM60.9515 42.0249H51.8391L37.9681 92.7877H47.1817L49.7129 82.2468H63.0777L65.6089 92.7877H74.9237L60.9515 42.0249ZM56.3953 54.2302L60.749 72.9542H51.8391L56.3953 54.2302ZM121.093 42.0249H112.689V76.0055L96.8946 42.0249H87.4785V92.7877H95.8821V58.9458L111.677 92.7877H121.093V42.0249ZM159.871 92.7877L147.721 66.9902V92.7877H138.71V42.0249H147.721V66.4354L159.264 42.0249H169.287L157.137 66.4354L170.401 92.7877H159.871ZM202.294 67.4063C202.294 77.5311 206.749 83.7725 212.52 83.7725C218.291 83.7725 222.746 77.5311 222.746 67.4063C222.746 57.2815 218.291 51.0402 212.52 51.0402C206.749 51.0402 202.294 57.2815 202.294 67.4063ZM192.777 67.4063C192.878 52.5658 200.472 40.9153 212.52 40.9153C224.569 40.9153 232.162 52.5658 232.264 67.4063C232.162 82.2468 224.569 93.8973 212.52 93.8973C200.472 93.8973 192.878 82.2468 192.777 67.4063ZM244.616 92.7877H253.627V72.8155H265.372V63.1067H253.627V51.7336H267.802L269.422 42.0249H244.616V92.7877ZM311.44 42.0249H302.327L288.456 92.7877H297.67L300.201 82.2468H313.566L316.097 92.7877H325.412L311.44 42.0249ZM306.884 54.2302L311.237 72.9542H302.327L306.884 54.2302ZM378.871 42.0249H368.341L358.723 69.4868L349.104 42.0249H338.574V92.7877H346.674V58.8071L358.621 92.7877L370.569 58.8071V92.7877H378.972L378.871 42.0249ZM396.387 92.7877H421.699V83.079H405.398V71.7059H418.257V62.2746H405.398V51.7336H420.282L421.902 42.0249H396.387V92.7877ZM456.022 92.7877H465.843L456.63 71.2898C461.692 69.3481 464.122 64.4937 464.122 57.4202C464.122 48.2662 460.072 42.1636 450.96 42.1636H436.684V92.9264H445.492V72.9542H447.922L456.022 92.7877ZM449.239 51.4562C452.985 51.4562 454.908 53.6754 454.908 57.975C454.908 62.2746 452.985 64.4937 449.239 64.4937H445.391V51.4562H449.239ZM479.309 92.7877H488.32V42.1636H479.309V92.7877ZM532.667 79.1955C529.225 82.5242 526.187 83.6338 523.049 83.6338C516.164 83.6338 511.304 77.115 511.304 67.4063C511.304 57.6976 516.062 51.1789 522.745 51.1789C525.782 51.1789 528.82 52.2884 532.161 55.6171V44.1053C529.123 41.7475 525.58 40.7766 521.631 40.7766C509.38 40.7766 501.685 52.4271 501.584 67.2676C501.685 82.2468 509.178 93.7586 521.631 93.7586C525.782 93.7586 529.326 92.7877 532.566 90.4299V79.1955H532.667ZM565.674 42.0249H556.562L542.691 92.7877H551.904L554.436 82.2468H567.8L570.332 92.7877H579.646L565.674 42.0249ZM561.118 54.2302L565.472 72.9542H556.562L561.118 54.2302Z" fill="#012169"/>
</svg>
