<svg width="200" height="116" viewBox="0 0 200 116" fill="none" xmlns="http://www.w3.org/2000/svg">
<g clip-path="url(#clip0_22_9093)">
<path d="M0 115.473H200V0.000813007H0V115.473Z" fill="white"/>
<path d="M200 30.5043L196.436 28.4493L192.871 30.5043V34.6141L196.436 36.6698L200 34.6141V30.5043ZM200 44.7293L196.435 42.6744L192.871 44.7293V48.8392L196.435 50.8949L200 48.8392V44.7293ZM196.435 14.2251L192.871 16.2808V20.3907L196.435 22.4456L200 20.3907V16.2808L196.435 14.2251ZM175.329 2.05574V6.16477L171.764 8.21969L168.2 6.16477V2.05574L171.764 0L175.329 2.05574ZM187.664 9.16787L184.099 7.11294L180.536 9.16787V13.2777L184.099 15.3334L187.664 13.2777V9.16787Z" fill="#FFC72C"/>
<path d="M0.127441 4.94011V9.06703L3.73067 11.1293L11.369 6.75595V2.63147L7.7657 0.567604L0.127441 4.94011ZM0.128255 19.2205V23.3466L3.7323 25.4096L22.0144 14.9407V10.8162L18.412 8.75233L0.128255 19.2205ZM0.128255 33.5V37.627L3.7323 39.6892L31.8068 23.6141V19.4888L28.2044 17.4266L0.128255 33.5ZM12.5985 40.6406V44.7667L16.2009 46.829L34.4854 36.3608V32.2339L30.883 30.1717L12.5985 40.6406ZM25.0695 47.7804V51.9073L28.6719 53.9696L36.3102 49.5971V45.4701L32.7078 43.4071L25.0695 47.7804Z" fill="white"/>
<path d="M140.809 17.1379V21.2648L144.412 23.3271L152.05 18.9538V14.8293L148.447 12.7654L140.809 17.1379ZM140.81 31.4183V35.5444L144.414 37.6074L162.696 27.1385V23.014L159.093 20.9501L140.81 31.4183ZM140.81 45.6978V49.8248L144.414 51.887L172.488 35.8119V31.6866L168.886 29.6244L140.81 45.6978ZM153.28 52.8384V56.9645L156.882 59.0268L175.167 48.5586V44.4317L171.564 42.3695L153.28 52.8384ZM165.751 59.9782V64.1051L169.353 66.1674L176.992 61.7949V57.6679L173.389 55.6049L165.751 59.9782Z" fill="url(#paint0_linear_22_9093)"/>
<path d="M177.597 15.0326L174.027 12.9833L166.337 17.3989V21.499L169.907 23.5491L177.597 19.1335V15.0326ZM189.952 36.3194L186.382 34.2685L178.694 38.6857V42.7858L182.264 44.8359L189.952 40.4194V36.3194ZM189.952 50.5095L186.382 48.4602L180.501 51.8382V55.9383L184.07 57.9883L189.952 54.6112V50.5095ZM186.382 20.0784L176.039 26.0179V30.118L179.61 32.1688L189.952 26.2285V22.1284L186.382 20.0784ZM165.24 12.036L159.359 15.414L155.789 13.3647V9.26382L161.67 5.88666L165.24 7.93589V12.036Z" fill="#41B6E6"/>
<path d="M121.697 44.2032L118.822 52.2375C115.257 49.4914 111.882 48.0788 108.34 48.0788C105.132 48.0788 102.257 49.6743 102.257 52.7327C102.257 56.3237 106.669 57.3199 110.279 58.5844C116.897 60.8451 124.852 63.9026 124.852 73.6771C124.852 83.7834 115.292 88.1047 107.137 88.1047C101.399 88.1047 96.1544 86.2051 91.6909 82.8922L94.7428 74.361C98.7266 77.9082 102.811 79.9932 107.204 79.9932C110.948 79.9932 114.624 78.1985 114.624 74.0748C114.624 70.0861 110.346 68.5573 105.6 66.8293C99.5178 64.5678 92.6992 61.9079 92.6992 52.9994C92.6992 44.1552 100.254 39.9665 108.006 39.9665C113.256 39.9665 117.538 41.4432 121.697 44.2032ZM34.7377 76.0647L37.7628 84.5194C33.7781 86.8833 29.2682 88.1047 24.5322 88.1047C10.4934 88.1047 0 78.2635 0 64.0352C0 50.4062 11.1626 39.9665 24.9323 39.9665C29.6472 39.9665 33.6358 41.2635 37.6749 43.5299L34.6922 51.8675C31.885 49.741 28.542 48.2781 24.9323 48.2781C16.4443 48.2781 10.2266 55.1926 10.2266 64.0352C10.2266 73.3437 15.7742 79.7939 24.9323 79.7939C28.4127 79.7939 31.8907 78.4441 34.7377 76.0647ZM58.5381 70.8847L64.4353 52.3782L70.3341 70.8839L58.5381 70.8847ZM69.9463 40.7659H59.5058L42.8582 87.307H53.306L56.0619 78.6636H72.8103L75.5654 87.3078H86.5946L69.9463 40.7659Z" fill="#0032A0"/>
</g>
<defs>
<linearGradient id="paint0_linear_22_9093" x1="54.0961" y1="80.1327" x2="97.9483" y2="15.9514" gradientUnits="userSpaceOnUse">
<stop stop-color="#0031A0"/>
<stop offset="1" stop-color="#41B6E6"/>
</linearGradient>
<clipPath id="clip0_22_9093">
<rect width="200" height="116" fill="white"/>
</clipPath>
</defs>
</svg>
