<svg width="263" height="50" viewBox="0 0 263 50" fill="none" xmlns="http://www.w3.org/2000/svg">
<g clip-path="url(#clip0_22_9100)">
<path d="M231.425 0.36043C230.472 0.36043 229.7 1.1334 229.7 2.08655V14.1928H261.636L247.093 0.361546L231.425 0.36043Z" fill="#117ACA"/>
<path d="M262.805 17.8552C262.805 16.8998 262.038 16.1302 261.08 16.1302H248.994V48.1102L262.8 33.5404L262.805 17.8552Z" fill="#117ACA"/>
<path d="M245.331 49.2679C246.282 49.2679 247.054 48.4939 247.054 47.5385V35.4368H215.117L229.663 49.2657L245.331 49.2679Z" fill="#117ACA"/>
<path d="M213.949 31.7754C213.949 32.7297 214.721 33.5071 215.677 33.5071H227.761V1.5249L213.952 16.0902L213.949 31.7754Z" fill="#117ACA"/>
<path d="M67.567 6.19832V20.9671H47.019V6.19832L39.5352 6.19166V43.4301H47.019V27.4323H67.567V43.4301H75.0631V6.19832H67.567Z" fill="#211E1E"/>
<path d="M167.127 6.19832V43.4211H199.961L195.802 36.8682H174.632V27.4323H195.131V21.1206H174.632V12.5979H195.766L199.841 6.19832H167.127Z" fill="#211E1E"/>
<path d="M11.7168 6.18942C3.93192 6.18942 0 10.9285 0 17.824V31.7242C0 39.7042 5.06701 43.4301 11.6779 43.4301L35.1581 43.4278L30.8053 36.6212H13.1285C9.3732 36.6212 7.73715 35.2621 7.73715 31.0536V18.4425C7.73715 14.374 9.11442 12.7869 13.2285 12.7869H30.9897L35.1693 6.18942H11.7168Z" fill="#211E1E"/>
<path d="M134.285 6.18053C129.79 6.18053 125.182 8.88649 125.182 15.8466V17.635C125.182 24.891 129.615 27.6592 134.051 27.6781H149.623C151.24 27.6781 152.554 27.9472 152.554 30.6843L152.551 33.8463C152.51 36.3054 151.285 36.8682 149.567 36.8682H129.082L124.886 43.4211H150.049C156.117 43.4211 160.236 40.3983 160.236 33.4159V30.8501C160.236 24.099 156.408 20.9093 150.474 20.9093H135.606C133.958 20.9093 132.809 20.4589 132.809 18.0142V15.4396C132.809 13.3575 133.597 12.5979 135.518 12.5979L155.026 12.5901L159.103 6.17163L134.285 6.18053Z" fill="#211E1E"/>
<path d="M96.8066 6.19832L79.1738 43.4278H87.5075L90.9417 35.7392H110.103L113.525 43.4278H121.896L104.222 6.19832H96.8066ZM100.503 13.9281L107.279 29.402H93.7721L100.503 13.9281Z" fill="#211E1E"/>
</g>
<defs>
<clipPath id="clip0_22_9100">
<rect width="262.805" height="50" fill="white"/>
</clipPath>
</defs>
</svg>
