<svg width="200" height="112" viewBox="0 0 200 112" fill="none" xmlns="http://www.w3.org/2000/svg">
<g clip-path="url(#clip0_22_10972)">
<path d="M54.1503 46.5065V41.2787H44.6548V73.3346H54.3832V55.5699C56.0503 51.8582 58.863 50.0019 62.8214 50.0008C63.9762 49.9952 65.1285 50.1096 66.2598 50.3421V41.1368C65.4252 40.8338 64.4114 40.6823 63.2185 40.6823C59.9193 40.6823 56.8966 42.6237 54.1503 46.5065Z" fill="#134B97"/>
<path d="M97.3767 69.1035C100.512 65.9139 102.08 61.9694 102.08 57.27C102.08 52.6099 100.512 48.6792 97.3767 45.4779C94.2413 42.2766 90.3483 40.6759 85.6978 40.6759C81.0474 40.6759 77.1597 42.284 74.0349 45.5002C70.9101 48.7164 69.3472 52.6397 69.3462 57.27C69.3462 61.9003 70.9091 65.8278 74.0349 69.0525C77.1608 72.2772 81.0484 73.8901 85.6978 73.8912C90.3483 73.8955 94.2413 72.2996 97.3767 69.1035ZM80.5562 62.8072C79.2208 61.3038 78.5531 59.4602 78.5531 57.2764C78.5531 55.1297 79.2208 53.3005 80.5562 51.7886C81.8915 50.2767 83.606 49.5202 85.6994 49.5192C87.7918 49.5192 89.5111 50.2756 90.8571 51.7886C92.2031 53.3015 92.8756 55.1308 92.8745 57.2764C92.8745 59.4421 92.2021 61.281 90.8571 62.7928C89.5121 64.3047 87.7929 65.0607 85.6994 65.0607C83.606 65.0607 81.8915 64.3095 80.5562 62.8072Z" fill="#134B97"/>
<path d="M158.788 40.6823C154.28 40.6823 150.463 42.2548 147.337 45.3997C144.212 48.5447 142.649 52.5036 142.649 57.2764C142.649 62.1671 144.145 66.159 147.138 69.2519C150.131 72.3447 154.052 73.8933 158.901 73.8976C162.159 73.8976 164.944 73.2894 167.255 72.0731C169.66 70.7836 171.815 69.076 173.62 67.0303L166.574 63.0895C164.756 64.7481 162.388 65.5774 159.471 65.5774C155.285 65.5774 152.823 63.721 152.084 60.0083H174.134C174.139 59.747 174.158 59.4861 174.191 59.2268C174.228 58.8962 174.256 58.5932 174.276 58.3178C174.295 58.0435 174.304 57.8122 174.304 57.6224C174.304 52.9252 172.855 48.9285 169.957 45.6326C167.058 42.3366 163.336 40.6865 158.788 40.6823ZM152.197 54.2382C152.67 52.4595 153.475 51.0869 154.611 50.1204C155.715 49.1659 157.13 48.65 158.589 48.6707C160.029 48.6707 161.331 49.2316 162.496 50.3532C163.661 51.4749 164.358 52.7705 164.585 54.2398L152.197 54.2382Z" fill="#134B97"/>
<path d="M196.96 40.6823C193.664 40.6823 190.643 42.6242 187.897 46.5081V41.2787H178.406V73.3346H188.123V55.5699C189.79 51.8582 192.603 50.0019 196.562 50.0008C197.716 49.9952 198.869 50.1096 200 50.3421V41.1368C199.161 40.8338 198.148 40.6823 196.96 40.6823Z" fill="#134B97"/>
<path d="M35.2934 35.2312C35.4375 34.1286 35.5237 33.0192 35.5517 31.9076H35.5645C35.5645 19.3675 45.7713 9.16543 58.3066 9.16543C70.8419 9.16543 81.0488 19.3723 81.0488 31.9076H90.2142C90.2142 14.3135 75.9007 0 58.3066 0C40.896 0 26.7069 14.0185 26.4102 31.3605H26.3943C26.3875 32.2636 26.3241 33.1654 26.2045 34.0606C25.785 37.3172 24.5698 42.0123 21.1633 45.883C18.4983 48.9131 14.8526 50.9641 10.285 52.0326V30.737H0V73.3298H10.2866V61.3958C13.3077 60.8883 16.2468 59.9764 19.0246 58.6846L28.3001 73.3282H40.6041L27.0306 53.0198C27.3751 52.6673 27.7148 52.3085 28.0433 51.9369C32.9793 46.3263 34.7097 39.7589 35.2934 35.2312Z" fill="#134B97"/>
<path d="M138.544 82.7026V41.2787H129.281V44.0075C127.102 41.7907 124.347 40.6823 121.013 40.6823C116.902 40.6823 113.34 42.2282 110.328 45.32C107.316 48.4118 105.81 52.2463 105.81 56.8234C105.81 61.3772 107.352 65.1729 110.435 68.2104C113.518 71.2481 117.042 72.7663 121.005 72.7653C124.225 72.7461 127.019 71.8594 129.388 70.1051C129.388 70.1689 129.388 79.7649 129.388 82.7042C129.341 87.8577 127.261 92.7844 123.601 96.4122C119.94 100.04 114.995 102.075 109.841 102.075C104.687 102.075 99.7416 100.04 96.0809 96.4122C92.4202 92.7844 90.3403 87.8577 90.2937 82.7042H81.1299C81.1299 98.5359 94.0097 111.411 109.837 111.411C125.383 111.411 138.075 98.9889 138.528 83.5494H138.539V83.1124C138.539 82.9737 138.55 82.8381 138.55 82.6994L138.544 82.7026ZM127.364 62.257C126.048 63.7093 124.319 64.4355 122.178 64.4355C120.075 64.4355 118.355 63.7093 117.02 62.257C115.685 60.8046 115.017 58.9972 115.017 56.8346C115.017 54.6742 115.685 52.8667 117.02 51.4122C118.355 49.9577 120.075 49.231 122.178 49.2321C124.299 49.2321 126.023 49.9588 127.35 51.4122C128.676 52.8656 129.339 54.6731 129.338 56.8346C129.339 58.9961 128.681 60.8036 127.362 62.257H127.364Z" fill="#134B97"/>
<path d="M145.701 97.6333C145.682 98.554 145.302 99.4304 144.644 100.075C143.986 100.719 143.102 101.08 142.181 101.08C141.26 101.08 140.375 100.719 139.717 100.075C139.059 99.4304 138.68 98.554 138.66 97.6333C138.66 95.7323 140.228 94.206 142.191 94.206C144.154 94.206 145.701 95.737 145.701 97.6333ZM139.537 97.6333C139.537 99.1579 140.666 100.37 142.212 100.37C143.716 100.37 144.824 99.1579 144.824 97.6588C144.824 96.1597 143.717 94.9014 142.191 94.9014C140.665 94.9014 139.539 96.1294 139.539 97.6333H139.537ZM141.647 99.4306H140.85V96.0034C141.284 95.9272 141.725 95.8925 142.165 95.8997C142.813 95.8997 143.106 96.0034 143.357 96.1501C143.465 96.2427 143.551 96.3583 143.609 96.4886C143.667 96.6188 143.695 96.7604 143.692 96.9028C143.692 97.2792 143.4 97.5711 142.982 97.7003V97.7417C143.315 97.8677 143.503 98.1181 143.609 98.5774C143.714 99.0989 143.768 99.3078 143.859 99.4338H143.003C142.897 99.3078 142.843 98.9953 142.732 98.5981C142.669 98.2218 142.46 98.0543 142.02 98.0543H141.644L141.647 99.4306ZM141.668 97.4881H142.044C142.483 97.4881 142.842 97.3414 142.842 96.9874C142.842 96.6684 142.612 96.4643 142.111 96.4643C141.964 96.4609 141.817 96.4748 141.673 96.5057L141.668 97.4881Z" fill="#134B97"/>
</g>
<defs>
<clipPath id="clip0_22_10972">
<rect width="200" height="112" fill="white"/>
</clipPath>
</defs>
</svg>
