<svg width="432" height="100" viewBox="0 0 432 100" fill="none" xmlns="http://www.w3.org/2000/svg">
<g clip-path="url(#clip0_22_10985)">
<path d="M202.511 26.9986L190.436 29.7811V48.6763L203.548 51.5967H225.571V68.819H208.018V57.2346H190.437V69.8944L202.542 72.6866L231.971 72.7293L243.924 69.8944V49.6927L230.692 46.7948L208.459 46.7981L208.404 31.2913L225.571 31.3099V41.2538H243.683L243.739 29.7687L231.885 26.9991H202.51L202.511 26.9986ZM247.599 33.062L247.627 37.0064C252.426 37.116 259.753 37.31 259.753 37.31L259.74 63.9636C265.723 64.166 271.423 64.3458 276.86 64.5724V37.8014C276.86 37.8014 283.541 38.021 289.626 38.2648V34.2849C275.124 33.6842 262.179 33.3647 247.599 33.062ZM166.098 33.557C158.484 33.7948 150.821 34.0099 143.137 34.3466L133.59 37.289V63.4712L142.379 65.2945C152.161 64.7424 159.485 64.463 168.927 64.1228L177.207 61.682V36.1148L166.098 33.557ZM304.197 34.9102L293.553 37.193V65.3937C298.927 65.7212 304.242 65.9777 309.442 66.37V52.3144L319.84 53.0104V67.2054C325.21 67.6699 330.469 68.073 335.606 68.6055V39.9257L326.486 36.0798C318.743 35.59 311.947 35.2987 304.197 34.9098V34.9102ZM124.923 35.1598C119.576 35.4471 113.896 35.6892 108.558 36.0254V67.6161C113.95 67.1918 118.935 66.7914 124.923 66.3711V35.1598ZM100.11 36.5785C94.5607 36.9553 89.0307 37.2386 83.5069 37.7177V50.5616L72.5034 51.5322V38.4976C66.9196 38.9693 61.7289 39.3186 56.2136 39.8452V73.7345C62.0739 72.7856 65.4582 72.2759 72.5069 71.2743V55.79C72.5069 55.79 78.7385 55.1565 83.5069 54.7742V69.9388C88.8855 69.3279 94.4635 68.9222 100.093 68.3643L100.11 36.5785ZM340.978 36.9886V41.1001C342.204 41.1823 354.056 42.04 354.056 42.04L354.091 70.4591C359.901 71.1401 364.971 71.7786 370.174 72.5698V43.3619C370.174 43.3619 384.534 44.662 385.575 44.7709V40.5294C371.267 39.1034 355.7 38.0445 340.978 36.9886ZM160.883 37.8881V60.4505L149.669 60.9431V38.2407L160.883 37.8881ZM309.442 39.2179L319.84 39.7912V48.8356L309.442 48.2534V39.2179ZM391.42 41.0323V84.0934C403.391 86.2278 420.958 89.4912 431.959 91.6776V86.5147C424.453 85.09 409.005 82.1723 409.005 82.1723V66.4593C409.005 66.4593 424.87 68.4799 431.959 69.4897V64.5893C425.045 63.5769 408.309 61.4927 408.309 61.4927L408.337 47.1991C408.337 47.1991 423.904 49.0104 431.965 50.0809V45.547C419.023 43.7535 405.136 42.4746 391.418 41.0319L391.42 41.0323ZM33.5161 41.9043C24.9113 42.8486 16.6577 43.7311 8.40668 44.8144L0 48.577V88.7801L13.3108 90.8705C15.534 90.5452 36.4323 87.5775 37.7665 87.405L45.7393 83.4768V43.998L33.5161 41.9043ZM29.3352 46.6998L29.311 84.0045L17.0954 85.9545V48.2037L29.3352 46.6998Z" fill="black"/>
<path d="M165.27 5.71062L99.5107 20.8917V34.0586C118.226 32.8318 136.199 32.079 154.716 31.4247V26.2288L188.05 18.6055H246.776L279.465 26.2784V31.392C297.97 32.0309 315.846 32.8307 334.571 34.0429V20.9613L269.519 5.7103L165.27 5.71062ZM279.552 66.9619L279.502 73.3627L247.085 81.1375H187.783L154.682 73.3813V67.0048C135.152 67.911 116.016 69.211 99.6248 70.8669V78.7962L165.017 94.0886H269.769L334.601 78.7251L334.612 70.8543C317.369 69.1416 299.819 67.8966 279.55 66.9623L279.552 66.9619Z" fill="#BA0C2F"/>
<path d="M155.16 0L75.3462 18.3721L75.4737 32.7908C50.5548 34.6605 24.4084 36.8923 0.260742 39.9418V42.981C26.8136 39.3885 66.4809 36.2854 88.0049 34.8032V19.7296L160.632 2.98081H274.417L346.188 19.6133L346.095 34.7497C370.93 36.3849 408.08 39.6902 432 42.8178V39.7786C407.931 36.7507 384.108 34.7218 358.685 32.8151L358.601 18.4293L279.809 0H155.157H155.16ZM192.916 21.3045L166.281 27.4192V31.0446C170.81 30.9077 174.33 30.8691 178.813 30.7669V28.6166L197.907 24.2524H236.645L255.284 28.5981V30.7176C259.768 30.8165 263.576 30.9488 268.11 31.0818V27.4224L241.948 21.3045H192.916ZM255.645 66.1318V71.0063L237.03 75.3908H197.763L178.842 71.0831V66.152C174.284 66.2897 170.74 66.3146 166.282 66.4983V72.2878L192.574 78.4113H241.836L268.106 72.2172V66.5661C263.65 66.3877 260.202 66.2647 255.645 66.1318ZM88.0444 72.0148C74.8676 73.5158 65.6441 74.8446 56.1991 76.4671V79.9666C61.8855 78.9054 68.9293 77.5114 75.3339 76.6327V81.0785L155.371 99.762H279.329L358.612 81.1601L358.608 76.8007C367.569 78.0616 375.514 79.331 382.882 80.7991V77.3634C372.09 75.4288 359.983 73.5432 346.216 72.0149L346.147 79.8544L274.495 96.8131H160.295L88.0442 79.9497L88.0444 72.0148Z" fill="#A7B1B7"/>
</g>
<defs>
<clipPath id="clip0_22_10985">
<rect width="432" height="100" fill="white"/>
</clipPath>
</defs>
</svg>
